<?xml version="1.0" encoding="UTF-8"?>
<svg id="map" xmlns="http://www.w3.org/2000/svg" viewBox="0 0 841.89 595.28">
  <g>
    <path d="M566.82,273.18c-.07-1.16.54-1.27,1.48-.66,2.15,3.2,4.7,5.8,7.65,7.79,1.26-.05,2.14.24,2.63.88.48,3.68,4.23,11.3,5.22,15.9,7.74,36.16-6.24,68.64-30.35,94.77-.16.57-.34,1.14-.59,1.67-2.4,5.1-16.77,15.55-22.13,19.2-60.17,41.02-156.2,40.99-211.02-9.23-4.44-4.06-16.92-16.72-18-21.82-.11-.52-.14-1.05-.15-1.59-14.55-23.66-17.78-49.25-11.19-76.14.71-2.91,2.93-7.33,3.17-9.93l.91-.96c2.27.57,4.16-.78,5.66-4.06,2.35-5.08,5.44-9.53,9.29-13.35l1.26.2,1.49,1.44c1.74,9.13,3.21,18.31,4.42,27.55,4.62,33.62,42.64,47.74,72.2,42.58,1.24-.83,3.01-1.1,3.89-.58l.54.4c-.47,6.73,3.47,16.63,10.81,17.78,6.78-.44,10.48-.51,14.9,5.41,6.87,4.98,24.88,5.14,28.97-3.43.14-1.76.37-3.32,2.58-2.9,14.19,5,24.63-7.54,15.85-20.17l.51-1.25,2.23.27c19.69,13.17,51.8,13.91,69.06-3.5,11.76-11.86,20.96-32.32,24.42-48.39l1.09-.78c.95-2.33,3.01-1.03,3.42,1.17,1.06-.43,2.06-.55,3-.37-.41-.05-1.03-.17-1.07-.46-.21-1.69-.2-6.45,0-8.15l1.07-.74c-.98,2.8-5.14-.15-2.02-2.08l-.03-.79c-2.65-2.79-3.04-4.69-1.15-5.69Z" fill="#ec6445"/>
    <path d="M301.56,380.11c15.4,25.05,41.23,41.71,68.04,51.37,59.72,21.52,140.06,7.84,183.84-39.61.73,2.06,2.6,3.97,3.67,5.8.93,1.6,3.57,6.54,4.06,8.12,3.55,11.66-3.38,23-12.91,29.29-1.45.96-6.19,2.53-6.5,4.18-.07.39,2.16,5.92,2.45,7.54,1.88,10.42,2.12,22.54-7.71,28.91-24.49,15.85-71.89-1.77-96.73-11.64-28.41,4.3-72.97,13.59-96.76-6.99-3.58-3.1-6.31-7.62-9.9-10.95-4.81-4.46-12.86-10.66-19.12-12.43-8.76-2.48-15.54-2.66-23.41-8.68-12.25-9.37-9.92-39.03,4.93-43.72,2.25-.71,4.06-.35,6.03-1.19Z" fill="#1a4f25"/>
    <path d="M552.8,271.67c-15.89,10.59-56.4,7.71-73.94,1.08-7.92-2.99-13.55-8.8-19.19-14.93l-.21-1.78c-3-.95-5.15-3.37-5.88-6.42l-1.75-.26c-5.04-5.12-11.76-7.61-18.84-8.18l-1.34-1.19c-1.91-.52-3.98-.55-5.88,0-.13,1.41-2.9,2.23-3.74,1.07l-.2,1.31c-2.14,1.54-3.95,3.46-5.45,5.79l-1.3-.14c-.1.5-.21,1-.4,1.47s-.37.89-.67,1.21c-17.14,18.13-41.3,26.41-65.73,28.14-.43.03-.88-.11-1.35-.25s-.93-.38-1.38-.62c-4.59,1.29-10.95,2.74-14.97,0-2.59,1.63-7.94.01-11.02-.94-2.32-.72-4.6-1.57-6.69-2.83l-.47-1.57c-3.36-.5-4.64-2.23-4.75-5.5-1.28-1.21-1.35-1.7-1.85-3.43-.97-3.38-1.31-16.92-.94-20.79.2-2.13.77-5.1,1.46-6.78.58-1.34.82-2.36.73-3.07-.46-2.27-.28-4.8.53-7.58.6-11.37,1.63-21.95,6.4-32.13l1.09-.39c1.21.05,1.43-.74,2.04-1.43,16.55-18.64,40.61-23.29,64.53-26.71,1.49-.21,3.94.02,4.67-.19.07-.02.37-1.04.41-1.07l.8-.81c4.29-.11,7.7.42,11.76-.64.2.77.67,1.59,2.1,1.42,10.99-1.3,23.18-1.53,34.29-1.06,11.67.49,23.25,2.7,34.82,3.7,1.04.09,2.07.61,1.79-1l1.1-.51c1.01.09,5.17,1.35,5.85,2.11,14.11,3.08,28.46,6.55,42.25,10.96,2.62.84,5.76,2.35,8.38,3.38.75.06,1.2-.68,1.78-.97,16.22,4.83,24.81,16.67,29.91,32.61.6,1.87,5.33,20.34,4.12,20.45l.19.41c-2.04.82-.72-2.6-.09-1.02,2.88,6.22-.45,28.41-5.05,33.08-.28.28,0,0,0,0" fill="#1a4f25"/>
    <path d="M300.49,238.43c-11.94.17-24.24,4.61-35.58,8.54-1.74.6-9.12,5.15-8.72.92.08-.9,7.66-8.54,9-9.74,9.6-8.62,16.51-11.13,28.64-14.68.59-.17,1.64-.19.78-1.08-.71-.73-6.84-2.62-8.23-3.27-1.83-.85-3.49-2.43-5.53-3.03-8.49-4.53-22.59-6.12-30.46-10.71-2.9-1.69-4.08-4.32-.96-6.52,2.29-1.61,7.21-1.26,10.09-1,8.73.77,23.41,4.07,32,6.5,5.85,1.65,11.13,3.89,16.46,6.8-1.39-7.33-7.11-13.86-12.02-19.25-2.3-2.53-10.45-9.08-10.46-12.02-.04-7.43,13.83-.49,16.96,1.24,2.47,1.36,13,8.99,13.55,11.32.26,1.12-3.31,8.63-3.89,10.81-2.48,9.21-1.28,21.14-4.13,29.29-.14,1.47-.45,3.4-1.62,4.54.78,2.07-.22,2.9-2.33,1.6l-3.54-.26Z" fill="#ca9441"/>
    <path d="M532.59,179.61c6.7-3.43,17.98-12.33,25.53-8.18,4.62,2.54-3.56,6.58-4.96,8.16-1.54,1.74-5.07,8.33-2.39,9.95.73.44,9.46-1.84,11.48-1.93,8.57-.37,27.65,7.79,35.22,12.42,3.15,1.93,11.05,6.53,3.87,8.92-5.42-.94-11.43-3.18-16.74-4.08-4.25-.72-16.65-.64-20.1,1.55-.54.34-1,.77-1.41,1.26,5.16,3.43,10.49,6.47,15.44,10.21,4.61,3.48,15.88,12.65,18.68,17.14.9,1.44,1.57,2.74.88,4.43-.09.23-2.22,2.9-2.39,2.99-1.19.59-2.23-.03-3.35-.42-9.87-3.35-14.05-8.37-25.52-8.96-.35-.02-.71.06-1.05,0-2.08-15.68-6.44-34.23-19.02-44.89-4.24-3.59-7.87-4.96-12.99-6.81-1.24-.45-1.39.05-1.16-1.76Z" fill="#ca9442"/>
    <path d="M308.02,238.18c.03.78-1.12,2.6-1.16,4.26-.09,4.04.38,18.29,1.13,21.81.06.28.23,1.15.61,2.24.37,1.09,1.37,2.07,1.78,2.95.49,1.05,1.12,1.37,1.9,1.98.24.19.99.65,1.05.69.87,1.25-1.11,4.11-2.67,3.74-1.31,1.55-3.58,3.43-4.8,5.21-1.94,2.82-6.18,12.76-9.5,13.39-.96.18-1.87-.44-2.81-.42.06-.63-.57-2.42-.54-3.45.47-18.16,3.25-34.65,11.72-50.87l1.07-1.33h0c-.08-2.16,1.64-4.24,2.19-5.83,0,0,.21,1.03.12,1.46,0,0,.09,3.51-.07,4.18" fill="#223623"/>
    <path d="M385.81,164.75c-1.51-6.23-3.07-13-6.53-18.35-1.6-2.47-8.04-9.95-8.56-11.8-.72-2.56,1.58-4.31,4.08-3.51,7.15,2.28,17.51,21.81,20.84,28.63,1.38,1.05,6.65-17,12.44-15.42.73.2,1.96,1.53,1.98,2.31.04,1.84-5.63,8.6-6.84,10.8-.77,1.39-1.08,3.08-1.7,4.45-.19.42-.61,1.56-.88,1.63-3.9.32-7.82.48-11.71.93-.52.06-3.06.31-3.12.34Z" fill="#ca9343"/>
    <path d="M578.7,280.8c.02.17-.07.35-.23.41-4.22,1.63-8.22-4.88-10.77-7.86-.21-.25-.82-.12-.88-.18l-.71.25c-1.56-2.58-3.51-4.91-5.83-7.01l.11-1.27c.3-.3,3.67-6.74,3.97-7.52.82-2.1,1.6-9.24,1.91-11.46.39-2.81.23-5.36.54-8.29,1.42,3.57,4.21,6.6,5.74,10.04,5.04,11.38,4.69,21.42,6.15,32.88Z" fill="#233624"/>
    <path d="M480.19,166.25c-2.57-.56-6.33.74-9.14-1.52-1.4-1.13-1.59-16.5-1.44-16.76,1.84-3.22,9.23,15.8,10.58,18.28Z" fill="#c39148"/>
    <path d="M426.71,239.49c.99-.24,4.66-.21,5.88,0,8.99.65,15.81,3.09,21.93,9.62l.67,1.75c-2.05,3.89-2.92,11.51,2.07,4.79,1.13-1.26,1.84-1.11,3.14-.12,10.39,11.03,14.23,15.25,29.83,18.57,17.9,3.81,48.44,5.6,64.3-4.67,1.27-.55,1.39-.52,2.4.03,2.65,1.45,8.77,18.75,7.38,20.29-.19.21-.44.38-.69.53,0,9.87-11.86,32.93-17.75,41.34-6.67,9.52-13.31,15.6-24.62,19.23-17.66,5.67-39.53,2.92-54.43-8.17l-1.57-.54c-11.66-17.81-40.6-15.13-57.74-7.54-6.99,3.1-9.91,6.76-14.24,12.64l-.31-.25c-6.45,5.02-27.2,1.96-35.14.15-14.64-3.33-29.17-12.18-36.65-25.38-7.76-13.69-6.31-31.01-10.5-45.91.8-.94,1.56-2.77,2.67-3.74,4.96,3.43,12.25,4.74,18.18,5.35l1.19.51c-.35,5.78,4,18.21,5.51,4.35,1.44-3.47,4.95-4.26,8.28-4.86,27.37-1.78,50.73-9.63,69.52-29.94,1.02-.92,2.09-.54,3.21,1.14,7.13,13.38,9.61,14.78,7.44,4.19.3-.5.75-.8,1.32-.94,8.47,5.57,5.79-1.34,1.28-4.64l-6.62-4.78c-.9-.88-.67-1.22.33-1.92,1.29-.61,2.31-.93,3.74-1.07Z" fill="#f9d5bd"/>
    <path d="M466.82,342.68c2.42,4.19,5,9.2,3.34,14.29-2.25,6.89-8.39,9.87-15.36,9.22-1.08-.1-5.23-1.46-5.62-1.07-.09.09,0,1.69-.41,2.53-4.17,8.89-23.1,8.89-30.26,3.8-1.48-1.05-4.46-4.83-5.54-5.15-3.75-1.11-8.58,1.12-12.95-1.49-2.53-1.51-7.06-8.33-7.49-11.22-.2-1.34,0-2.76-.06-4.16-.06-1.64.44-3.23,1.45-4.52,1.65-2.09,3.13-4.74,5.24-6.53,10.25-8.68,34.75-12.92,47.46-9.46,9.38,2.55,15.24,5.17,20.21,13.75Z" fill="#793624"/>
    <path d="M380.05,384.52c1.46,1.43-.31,3.46-1.46,4.41,3.57,2.39,7.35,5.49,11.05,7.66,8.68,5.11,19.16,7.43,29.31,6.5,2.16-.2,12.81-3.97,11.95.67-.43,2.34-3.13,2.31-4.82,3.14-8.01,3.9-11,4.8-20.48,4.21-11.82-.73-27.42-5.87-32.2-17.55-.22-.54-.1-1.63-.16-1.69-.36-.39-6.11,1.4-6.88-1.48-.63-2.35,2.02-1.74,2.53-1.85,0,0,4.24-1.47,4.68-1.69,1.95-1,1.94-1.28,3.94-2.8.8-.23,1.96-.12,2.56.47Z" fill="#793623"/>
    <path d="M560.4,265.16c1.25.95,2.78,2.25,3.74,3.47s1.88,3.6,2.67,4.55l.7,4.67s.71,1.5,1.21,2.93c.36.09.91,2.83.91,2.93l7.84,11.4c0,1.13-11.29-2.23-11.73-2.69-.47-.49-2.14-2.14-2.14-2.14,0-4.03-4.19-16.61-6.93-19.54-.61-.65-1.17-1.29-2.16-1.31,1.36-.88,4.95-3.34,5.88-4.28Z" fill="#cb9344"/>
    <path d="M499.78,374.91c3.78-.37,5.8,6.02.94,6.28-3.32.18-4.28-5.95-.94-6.28Z" fill="#74260f"/>
    <path d="M344.19,367.91c4.3-.62,5.46,5.88-.63,4.7-3.07-.6-2.09-4.31.63-4.7Z" fill="#712610"/>
    <path d="M511.87,377.84c-3.22-3.17,5.45-6.69,4.69-1.24-.3,2.18-3.42,2.49-4.69,1.24Z" fill="#772611"/>
    <path d="M335.39,377.03c2.54-2.57,6.3,2.9,2.53,4.42-2.55,1.03-4.41-2.51-2.53-4.42Z" fill="#762811"/>
    <path d="M328.68,364.16c4.35-1.31,4.35,5.93,0,4.62-2.01-.6-2.01-4.02,0-4.62Z" fill="#752610"/>
    <path d="M509.45,387.13c3.07-.46,3.36,5.31-.63,4.75-2.97-.41-2.23-4.33.63-4.75Z" fill="#732610"/>
    <path d="M378.04,183.36c36.5-7.51,84.58-3.83,120.99,4.42,19.42,4.4,37.82,8.28,45.6,28.73,18.73,49.25-37.12,46.75-66.79,33.62-11.55-5.11-17.1-21.44-31.34-25.88-2.67-.83-11.21-1.63-12.3-2.4l.45-1.06,5.92.5c-3.56-4.23-7.97-9.42-11.99-13.31-3.22-3.12-12.72-10.17-17.13-9.49-6.08,2.91-8.57,2.22-14.22-1.1-5.86-3.45-11.59-8.03-16.54-12.63-1.19-.29-2.07-.76-2.65-1.41Z" fill="#cbe9fa"/>
    <path d="M332.58,202.07c1.15-.4,1.79.26,1.91,1.98.25,4.19,2.8,7.48,7.65,9.85,4.29,3.1,13.17,9.49,17.88,10.65,5.96,1.48,9.42-.26,10.9-6.22-.91-9.59,8.35-3.87,12.64-.79,6.03,4.32,11.14,9.66,16.12,15.06,1.15,1,2.47,1.86,4.01,2.05l.56,1.1h.53c-16.73,14.83-44.5,25.37-66.98,21.25-27.05-4.95-18.76-40.55-5.21-54.94Z" fill="#cbe9fa"/>
    <path d="M374.3,184.43l.12,1.18c4.18,4.66,8.84,8.99,13.84,12.82,8.31,6.37,12.77,8.82,23.55,7.29,4.57.41,14.55,6.65,18.16,9.77,1.56,1.35,4.35,4.43,4.23,6.37-18.1-.06-17.34,3.19-29.41,13.9h-.53l-.32-1.21c2.11-2.45,2.12-3.56,0-3.34-4.54-5.12-8.88-10.42-13.03-15.91-3.78-6.67-24.38-22.99-24.55-6.41,2.44,8.75-3,9.03-9.18,5.27-7.42-3.97-14.67-8.1-21.76-12.38-1.08.09-1.85-.17-2.31-.78,11.58-11.22,26.06-13.95,41.18-16.57Z" fill="#cbe9fa"/>
    <path d="M333.12,201c3.24-1.59,5.79,2.14,8.07,3.43.59.33,1.43.29,2.04.63,3.54,1.93,17.32,10.42,20.1,10.42,4.29,0,1.89-4.48,1.93-7.21.1-7.54,5.35-9.1,11.64-6.41,10.73,4.6,19.66,19.91,27.46,28.42,3.97-.3,1.74,3.7-.12,5.46-4.95.03-8.41-6.24-11.95-9.44-2.71-2.45-8.75-7.73-11.63-9.49-1.2-.73-6.64-3.24-7.64-2.95-1.34.39-.71,3.09-.99,4.38-.44,2.05-1.84,3.78-2.35,5.8-4.35,2.88-8.23,2.34-12.88.6-2.96-1.11-4.93-3.26-7.46-4.84-3.08-1.92-14.88-9.01-15.58-12.23-.4-1.84.12-3.64-1.18-5.5.22-.24.31-.85.53-1.07Z" fill="#f1f9fe"/>
    <path d="M378.04,183.36c3.33-.88,4.44,2.07,6.68,3.75,4.32,3.25,15.48,12.32,20.33,12.32,2.05,0,5.54-2.42,7.97-2.17,3.88.4,13.23,7.06,16.29,9.95,1.91,1.8,3.34,4.09,5.07,5.89,1.52,1.6,7.02,5.85,7.22,8.04.05.57-.32,1.1-.77,1.21-.32.08-5.28-.5-6.63-.51-1.35-.95-3.36-4.2-4.68-5.36-1.79-1.56-13.21-8.76-15.14-9.31-4.09-1.15-9.86.42-14.01-.43-6.51-1.33-18.53-12.12-23.33-16.77-.88-.85-3.42-3.59-4.06-4.49s1.08-.39,1.34-1.07c1.51-.26,2.58-.83,3.74-1.07Z" fill="#f1f8fd"/>
    <path d="M422.96,240.56c-.07,1.22.81,1.38,1.54,1.94,3.66,2.78,11.77,7.16,9.61,12.42-2.13,1.35-6.38-2.48-6.87-2.06,2,2.35,2.73,9.62-2,7.67-2.27-.94-5.49-12.22-9.23-13.02,2.37-2.56,3.36-5.25,6.95-6.95Z" fill="#ca9444"/>
    <path d="M346.49,277.45c-1.8.43-6.02,3.02-6.99,4.51-1.03,1.57.22,7.62-3.44,7.61-4.32-.02-3.85-9.48-4.54-12.12,5.47.56,9.57.35,14.97,0Z" fill="#c99345"/>
    <path d="M460.4,255.53c-3.52-.32-2.79,4.07-6.13,3.75-4.3-.4.06-7.89.25-10.17,2,2.14,3.89,4.3,5.88,6.42Z" fill="#ca924c"/>
    <path d="M448.7,354.52c-.23.15-.47,1.9-.91,2.56-1.56,2.35-2.6,4.36-4.07,6.63-2.15,3.32-3.95,4.23-7.81,5.03-8.57,1.76-16.88.5-18.71-9.34-.49-2.63,1.17-6.16-2.94-5.41-4.06.74-2.81,5.54-3.07,5.8-.59.6-7.53-.41-8.59-1.45-2.36-2.3-1.67-10.91-.21-13.5.33-.58,2.15-2.63,2.73-3.16,6.55-5.93,17.02-7.87,25.65-8.58,10.99-.91,22.56,2.53,27.43,13.1,7.32,15.89-6.13,6.1-9.5,8.3Z" fill="#b34d35"/>
  </g>
  <circle cx="472.69" cy="317.92" r="8.59" fill="#391c14"/>
  <circle cx="392.44" cy="316.62" r="8.59" fill="#391c14"/>
</svg>