<svg width="1005" height="371" viewBox="0 0 1005 371" fill="none" xmlns="http://www.w3.org/2000/svg">
<path d="M362.701 242.744L359.114 242.345C358.79 243.542 359.114 244.815 359.986 245.713L379.465 268.191C350.022 267.592 322.872 269.039 293.405 268.316C217.483 266.469 140.39 260.033 64.4429 258.137C40.1319 257.538 20.7777 258.012 7.2771 280.914C-9.88508 310.028 4.61185 344.506 37.093 352.889C152.396 351.442 266.727 341.413 381.931 343.084C377.198 350.918 368.978 356.107 363.224 362.993C361.555 364.989 356.648 368.032 360.783 370.527C373.636 365.488 382.254 344.706 395.506 342.935C437.527 337.321 491.803 347.475 535.22 342.96C677.897 348.573 821.397 355.908 964.1 356.082C1000.96 341.138 1019.32 303.043 988.211 270.96C965.793 247.833 950.4 255.567 923.822 255.817C794.172 257.114 664.571 262.977 535.244 268.291C491.056 263.7 435.808 274.029 393.04 268.316C380.561 266.644 374.01 248.881 362.726 242.719L362.701 242.744Z" fill="#6FB8E7"/>
<path d="M362.701 0.399228L359.114 6.20017e-05C358.79 1.19756 359.114 2.4699 359.986 3.36802L379.465 25.8461C350.023 25.2473 322.872 26.6943 293.405 25.9708C217.483 24.1247 140.39 17.6881 64.4429 15.7921C40.1319 15.1933 20.7777 15.6673 7.27717 38.5695C-9.88501 67.6837 4.61192 102.162 37.093 110.544C152.396 109.097 266.727 99.0681 381.931 100.74C377.198 108.573 368.978 113.762 363.224 120.648C361.555 122.644 356.648 125.688 360.783 128.182C373.636 123.143 382.255 102.361 395.506 100.59C437.527 94.9767 491.804 105.13 535.22 100.615C677.897 106.228 821.397 113.563 964.1 113.738C1000.96 98.7938 1019.32 60.6983 988.211 28.6153C965.794 5.48862 950.4 13.2225 923.822 13.4719C794.172 14.7692 664.571 20.632 535.245 25.9459C491.056 21.3555 435.809 31.6839 393.04 25.9708C380.561 24.2993 374.01 6.53641 362.726 0.374275L362.701 0.399228Z" fill="#6FB8E7"/>
<path d="M418.577 317.41C417.03 317.41 415.617 317.077 414.337 316.41C413.084 315.743 412.084 314.77 411.337 313.49C410.617 312.183 410.257 310.597 410.257 308.73C410.257 306.89 410.644 305.303 411.417 303.97C412.19 302.61 413.217 301.57 414.497 300.85C415.804 300.13 417.23 299.77 418.777 299.77C420.324 299.77 421.63 300.13 422.697 300.85C423.764 301.543 424.577 302.37 425.137 303.33L424.897 303.97L425.257 300.45H428.697V317.01H424.977V312.69L425.377 313.65C425.27 313.917 425.03 314.263 424.657 314.69C424.31 315.09 423.83 315.503 423.217 315.93C422.63 316.357 421.95 316.717 421.177 317.01C420.404 317.277 419.537 317.41 418.577 317.41ZM419.577 314.33C420.51 314.33 421.35 314.157 422.097 313.81C422.844 313.463 423.457 312.983 423.937 312.37C424.444 311.73 424.79 310.97 424.977 310.09V306.85C424.764 306.05 424.39 305.357 423.857 304.77C423.324 304.157 422.684 303.69 421.937 303.37C421.19 303.023 420.364 302.85 419.457 302.85C418.47 302.85 417.564 303.09 416.737 303.57C415.91 304.05 415.244 304.717 414.737 305.57C414.257 306.423 414.017 307.423 414.017 308.57C414.017 309.637 414.27 310.61 414.777 311.49C415.284 312.37 415.964 313.063 416.817 313.57C417.67 314.077 418.59 314.33 419.577 314.33ZM435.135 286.05H438.855V317.01H435.135V286.05ZM449.931 317.33C448.757 317.33 447.611 317.13 446.491 316.73C445.397 316.303 444.491 315.677 443.771 314.85L445.331 312.69C446.024 313.357 446.731 313.863 447.451 314.21C448.197 314.53 448.931 314.69 449.651 314.69C450.184 314.69 450.677 314.623 451.131 314.49C451.584 314.357 451.944 314.143 452.211 313.85C452.504 313.53 452.651 313.103 452.651 312.57C452.651 311.983 452.451 311.517 452.051 311.17C451.677 310.823 451.184 310.543 450.571 310.33C449.984 310.117 449.357 309.917 448.691 309.73C447.331 309.277 446.291 308.65 445.571 307.85C444.851 307.05 444.491 306.077 444.491 304.93C444.491 304.05 444.704 303.237 445.131 302.49C445.584 301.717 446.237 301.09 447.091 300.61C447.971 300.13 449.051 299.89 450.331 299.89C451.477 299.89 452.504 300.037 453.411 300.33C454.317 300.597 455.171 301.05 455.971 301.69L454.491 304.01C454.011 303.503 453.437 303.13 452.771 302.89C452.104 302.65 451.504 302.517 450.971 302.49C450.517 302.463 450.077 302.53 449.651 302.69C449.251 302.85 448.917 303.077 448.651 303.37C448.384 303.663 448.251 304.01 448.251 304.41C448.251 304.97 448.437 305.423 448.811 305.77C449.184 306.117 449.664 306.397 450.251 306.61C450.864 306.797 451.464 306.997 452.051 307.21C452.877 307.45 453.611 307.77 454.251 308.17C454.891 308.57 455.397 309.063 455.771 309.65C456.171 310.237 456.371 310.97 456.371 311.85C456.371 312.837 456.131 313.757 455.651 314.61C455.197 315.437 454.491 316.103 453.531 316.61C452.597 317.09 451.397 317.33 449.931 317.33ZM477.556 300.45L477.876 304.49L477.716 303.85C478.249 302.623 479.116 301.65 480.316 300.93C481.516 300.183 482.903 299.81 484.476 299.81C486.049 299.81 487.329 300.277 488.316 301.21C489.329 302.117 489.849 303.303 489.876 304.77V317.01H486.116V306.09C486.089 305.183 485.823 304.45 485.316 303.89C484.836 303.303 484.076 303.01 483.036 303.01C482.076 303.01 481.209 303.277 480.436 303.81C479.663 304.343 479.049 305.077 478.596 306.01C478.169 306.943 477.956 308.023 477.956 309.25V317.01H474.236V300.45H477.556ZM494.905 308.57C494.905 306.917 495.292 305.423 496.065 304.09C496.865 302.757 497.959 301.703 499.345 300.93C500.732 300.157 502.305 299.77 504.065 299.77C505.879 299.77 507.465 300.157 508.825 300.93C510.185 301.703 511.239 302.757 511.985 304.09C512.732 305.423 513.105 306.917 513.105 308.57C513.105 310.223 512.732 311.73 511.985 313.09C511.239 314.423 510.172 315.477 508.785 316.25C507.425 317.023 505.839 317.41 504.025 317.41C502.265 317.41 500.692 317.05 499.305 316.33C497.945 315.583 496.865 314.557 496.065 313.25C495.292 311.917 494.905 310.357 494.905 308.57ZM498.625 308.61C498.625 309.677 498.865 310.65 499.345 311.53C499.825 312.383 500.465 313.063 501.265 313.57C502.092 314.077 502.999 314.33 503.985 314.33C505.025 314.33 505.945 314.077 506.745 313.57C507.572 313.063 508.212 312.383 508.665 311.53C509.119 310.65 509.345 309.677 509.345 308.61C509.345 307.543 509.119 306.583 508.665 305.73C508.212 304.85 507.572 304.157 506.745 303.65C505.945 303.117 505.025 302.85 503.985 302.85C502.972 302.85 502.052 303.117 501.225 303.65C500.425 304.183 499.785 304.89 499.305 305.77C498.852 306.623 498.625 307.57 498.625 308.61ZM521.462 300.45L521.822 305.25L521.622 304.61C522.049 303.597 522.662 302.743 523.462 302.05C524.289 301.33 525.142 300.783 526.022 300.41C526.929 300.01 527.716 299.81 528.382 299.81L528.182 303.49C526.929 303.41 525.822 303.65 524.862 304.21C523.929 304.77 523.182 305.517 522.622 306.45C522.089 307.383 521.822 308.383 521.822 309.45V317.01H518.142V300.45H521.462ZM536.501 300.45L536.821 304.17L536.661 303.85C537.275 302.597 538.141 301.61 539.261 300.89C540.408 300.17 541.715 299.81 543.181 299.81C544.115 299.81 544.941 299.957 545.661 300.25C546.381 300.543 546.968 300.97 547.421 301.53C547.901 302.063 548.208 302.73 548.341 303.53L548.141 303.65C548.781 302.45 549.661 301.517 550.781 300.85C551.928 300.157 553.128 299.81 554.381 299.81C556.008 299.81 557.288 300.277 558.221 301.21C559.181 302.117 559.675 303.303 559.701 304.77V317.01H555.981V306.09C555.955 305.237 555.741 304.53 555.341 303.97C554.968 303.383 554.301 303.063 553.341 303.01C552.381 303.01 551.515 303.303 550.741 303.89C549.995 304.477 549.408 305.237 548.981 306.17C548.555 307.077 548.328 308.063 548.301 309.13V317.01H544.581V306.09C544.555 305.237 544.328 304.53 543.901 303.97C543.501 303.383 542.821 303.063 541.861 303.01C540.875 303.01 540.008 303.303 539.261 303.89C538.515 304.477 537.928 305.237 537.501 306.17C537.101 307.103 536.901 308.103 536.901 309.17V317.01H533.181V300.45H536.501ZM573.069 317.41C571.523 317.41 570.109 317.077 568.829 316.41C567.576 315.743 566.576 314.77 565.829 313.49C565.109 312.183 564.749 310.597 564.749 308.73C564.749 306.89 565.136 305.303 565.909 303.97C566.683 302.61 567.709 301.57 568.989 300.85C570.296 300.13 571.723 299.77 573.269 299.77C574.816 299.77 576.123 300.13 577.189 300.85C578.256 301.543 579.069 302.37 579.629 303.33L579.389 303.97L579.749 300.45H583.189V317.01H579.469V312.69L579.869 313.65C579.763 313.917 579.523 314.263 579.149 314.69C578.803 315.09 578.323 315.503 577.709 315.93C577.123 316.357 576.443 316.717 575.669 317.01C574.896 317.277 574.029 317.41 573.069 317.41ZM574.069 314.33C575.003 314.33 575.843 314.157 576.589 313.81C577.336 313.463 577.949 312.983 578.429 312.37C578.936 311.73 579.283 310.97 579.469 310.09V306.85C579.256 306.05 578.883 305.357 578.349 304.77C577.816 304.157 577.176 303.69 576.429 303.37C575.683 303.023 574.856 302.85 573.949 302.85C572.963 302.85 572.056 303.09 571.229 303.57C570.403 304.05 569.736 304.717 569.229 305.57C568.749 306.423 568.509 307.423 568.509 308.57C568.509 309.637 568.763 310.61 569.269 311.49C569.776 312.37 570.456 313.063 571.309 313.57C572.163 314.077 573.083 314.33 574.069 314.33ZM589.627 286.05H593.347V317.01H589.627V286.05Z" fill="black"/>
<path d="M307.662 73V42.04H311.302V60.28L311.222 59.6C311.782 58.5067 312.635 57.6 313.782 56.88C314.955 56.16 316.329 55.8 317.902 55.8C319.475 55.8 320.755 56.2667 321.742 57.2C322.755 58.1067 323.275 59.2933 323.302 60.76V73H319.542V62.08C319.515 61.1733 319.249 60.44 318.742 59.88C318.262 59.2933 317.502 59 316.462 59C315.502 59 314.635 59.28 313.862 59.84C313.089 60.3733 312.475 61.1067 312.022 62.04C311.595 62.9733 311.382 64.04 311.382 65.24V73H307.662ZM337.451 73.4C335.558 73.4 333.931 73.0267 332.571 72.28C331.211 71.5067 330.158 70.4667 329.411 69.16C328.691 67.8267 328.331 66.3067 328.331 64.6C328.331 62.9733 328.745 61.4933 329.571 60.16C330.398 58.8267 331.505 57.76 332.891 56.96C334.278 56.16 335.825 55.76 337.531 55.76C339.718 55.76 341.531 56.4 342.971 57.68C344.411 58.96 345.385 60.72 345.891 62.96L332.251 67.76L331.371 65.56L342.571 61.48L341.771 62C341.451 61.12 340.918 60.36 340.171 59.72C339.425 59.0533 338.451 58.72 337.251 58.72C336.238 58.72 335.331 58.9733 334.531 59.48C333.731 59.96 333.105 60.6267 332.651 61.48C332.198 62.3333 331.971 63.3067 331.971 64.4C331.971 65.5467 332.211 66.56 332.691 67.44C333.171 68.2933 333.825 68.9733 334.651 69.48C335.505 69.96 336.465 70.2 337.531 70.2C338.251 70.2 338.945 70.0667 339.611 69.8C340.305 69.5333 340.945 69.1867 341.531 68.76L343.251 71.52C342.425 72.08 341.491 72.5333 340.451 72.88C339.438 73.2267 338.438 73.4 337.451 73.4ZM355.793 73.64C354.299 73.64 353.059 73.1867 352.073 72.28C351.113 71.3467 350.606 70.1467 350.553 68.68V56.44H354.273V67.36C354.326 68.2667 354.579 69 355.033 69.56C355.513 70.12 356.259 70.4133 357.273 70.44C358.206 70.44 359.033 70.1733 359.753 69.64C360.499 69.08 361.099 68.3333 361.553 67.4C362.006 66.44 362.233 65.36 362.233 64.16V56.44H365.953V73H362.553L362.233 68.92L362.433 69.64C362.113 70.4133 361.619 71.1067 360.953 71.72C360.313 72.3067 359.553 72.7733 358.673 73.12C357.793 73.4667 356.833 73.64 355.793 73.64ZM373.988 49.16H377.708V56.52H382.268V59.44H377.708V73H373.988V59.44H370.948V56.52H373.988V49.16ZM394.443 73.4C392.55 73.4 390.923 73.0267 389.563 72.28C388.203 71.5067 387.15 70.4667 386.403 69.16C385.683 67.8267 385.323 66.3067 385.323 64.6C385.323 62.9733 385.737 61.4933 386.563 60.16C387.39 58.8267 388.497 57.76 389.883 56.96C391.27 56.16 392.817 55.76 394.523 55.76C396.71 55.76 398.523 56.4 399.963 57.68C401.403 58.96 402.377 60.72 402.883 62.96L389.243 67.76L388.363 65.56L399.563 61.48L398.763 62C398.443 61.12 397.91 60.36 397.163 59.72C396.417 59.0533 395.443 58.72 394.243 58.72C393.23 58.72 392.323 58.9733 391.523 59.48C390.723 59.96 390.097 60.6267 389.643 61.48C389.19 62.3333 388.963 63.3067 388.963 64.4C388.963 65.5467 389.203 66.56 389.683 67.44C390.163 68.2933 390.817 68.9733 391.643 69.48C392.497 69.96 393.457 70.2 394.523 70.2C395.243 70.2 395.937 70.0667 396.603 69.8C397.297 69.5333 397.937 69.1867 398.523 68.76L400.243 71.52C399.417 72.08 398.483 72.5333 397.443 72.88C396.43 73.2267 395.43 73.4 394.443 73.4ZM420.201 56.44H423.921V73H420.201V56.44ZM419.921 50.44C419.921 49.8533 420.148 49.36 420.601 48.96C421.081 48.56 421.601 48.36 422.161 48.36C422.721 48.36 423.214 48.56 423.641 48.96C424.094 49.36 424.321 49.8533 424.321 50.44C424.321 51.0533 424.094 51.56 423.641 51.96C423.214 52.3333 422.721 52.52 422.161 52.52C421.601 52.52 421.081 52.32 420.601 51.92C420.148 51.52 419.921 51.0267 419.921 50.44ZM434.997 73.32C433.824 73.32 432.677 73.12 431.557 72.72C430.464 72.2933 429.557 71.6667 428.837 70.84L430.397 68.68C431.091 69.3467 431.797 69.8533 432.517 70.2C433.264 70.52 433.997 70.68 434.717 70.68C435.251 70.68 435.744 70.6133 436.197 70.48C436.651 70.3467 437.011 70.1333 437.277 69.84C437.571 69.52 437.717 69.0933 437.717 68.56C437.717 67.9733 437.517 67.5067 437.117 67.16C436.744 66.8133 436.251 66.5333 435.637 66.32C435.051 66.1067 434.424 65.9067 433.757 65.72C432.397 65.2667 431.357 64.64 430.637 63.84C429.917 63.04 429.557 62.0667 429.557 60.92C429.557 60.04 429.771 59.2267 430.197 58.48C430.651 57.7067 431.304 57.08 432.157 56.6C433.037 56.12 434.117 55.88 435.397 55.88C436.544 55.88 437.571 56.0267 438.477 56.32C439.384 56.5867 440.237 57.04 441.037 57.68L439.557 60C439.077 59.4933 438.504 59.12 437.837 58.88C437.171 58.64 436.571 58.5067 436.037 58.48C435.584 58.4533 435.144 58.52 434.717 58.68C434.317 58.84 433.984 59.0667 433.717 59.36C433.451 59.6533 433.317 60 433.317 60.4C433.317 60.96 433.504 61.4133 433.877 61.76C434.251 62.1067 434.731 62.3867 435.317 62.6C435.931 62.7867 436.531 62.9867 437.117 63.2C437.944 63.44 438.677 63.76 439.317 64.16C439.957 64.56 440.464 65.0533 440.837 65.64C441.237 66.2267 441.437 66.96 441.437 67.84C441.437 68.8267 441.197 69.7467 440.717 70.6C440.264 71.4267 439.557 72.0933 438.597 72.6C437.664 73.08 436.464 73.32 434.997 73.32ZM448.246 49.16H451.966V56.52H456.526V59.44H451.966V73H448.246V59.44H445.206V56.52H448.246V49.16ZM480.398 73.4C478.878 73.4 477.491 73.04 476.238 72.32C475.011 71.5733 474.038 70.5333 473.318 69.2C472.598 67.84 472.238 66.28 472.238 64.52C472.238 62.68 472.611 61.1067 473.358 59.8C474.131 58.4933 475.171 57.4933 476.478 56.8C477.784 56.1067 479.251 55.76 480.878 55.76C482.184 55.76 483.424 56.04 484.598 56.6C485.798 57.16 486.731 57.9333 487.398 58.92L487.238 60.24V42.04H490.918V73H487.198V68.88L487.598 69.92C486.824 70.9333 485.824 71.7733 484.598 72.44C483.371 73.08 481.971 73.4 480.398 73.4ZM481.558 70.24C482.544 70.24 483.424 70.0667 484.198 69.72C484.971 69.3467 485.611 68.84 486.118 68.2C486.624 67.56 486.984 66.8 487.198 65.92V62.8C486.984 62 486.598 61.3067 486.038 60.72C485.504 60.1067 484.851 59.6267 484.078 59.28C483.331 58.9067 482.491 58.72 481.558 58.72C480.544 58.72 479.611 58.9733 478.758 59.48C477.931 59.96 477.264 60.6267 476.758 61.48C476.251 62.3333 475.998 63.32 475.998 64.44C475.998 65.5333 476.251 66.52 476.758 67.4C477.264 68.2533 477.944 68.9467 478.798 69.48C479.651 69.9867 480.571 70.24 481.558 70.24ZM505.068 73.4C503.175 73.4 501.548 73.0267 500.188 72.28C498.828 71.5067 497.775 70.4667 497.028 69.16C496.308 67.8267 495.948 66.3067 495.948 64.6C495.948 62.9733 496.362 61.4933 497.188 60.16C498.015 58.8267 499.122 57.76 500.508 56.96C501.895 56.16 503.442 55.76 505.148 55.76C507.335 55.76 509.148 56.4 510.588 57.68C512.028 58.96 513.002 60.72 513.508 62.96L499.868 67.76L498.988 65.56L510.188 61.48L509.388 62C509.068 61.12 508.535 60.36 507.788 59.72C507.042 59.0533 506.068 58.72 504.868 58.72C503.855 58.72 502.948 58.9733 502.148 59.48C501.348 59.96 500.722 60.6267 500.268 61.48C499.815 62.3333 499.588 63.3067 499.588 64.4C499.588 65.5467 499.828 66.56 500.308 67.44C500.788 68.2933 501.442 68.9733 502.268 69.48C503.122 69.96 504.082 70.2 505.148 70.2C505.868 70.2 506.562 70.0667 507.228 69.8C507.922 69.5333 508.562 69.1867 509.148 68.76L510.868 71.52C510.042 72.08 509.108 72.5333 508.068 72.88C507.055 73.2267 506.055 73.4 505.068 73.4ZM521.49 56.44L521.85 61.24L521.65 60.6C522.076 59.5867 522.69 58.7333 523.49 58.04C524.316 57.32 525.17 56.7733 526.05 56.4C526.956 56 527.743 55.8 528.41 55.8L528.21 59.48C526.956 59.4 525.85 59.64 524.89 60.2C523.956 60.76 523.21 61.5067 522.65 62.44C522.116 63.3733 521.85 64.3733 521.85 65.44V73H518.17V56.44H521.49ZM550.265 62.76C550.265 64.0667 550.572 65.24 551.185 66.28C551.825 67.2933 552.665 68.0933 553.705 68.68C554.745 69.2667 555.918 69.56 557.225 69.56C558.585 69.56 559.798 69.2667 560.865 68.68C561.932 68.0933 562.772 67.2933 563.385 66.28C563.998 65.24 564.305 64.0667 564.305 62.76V44.08H568.105V62.88C568.105 64.9867 567.612 66.8267 566.625 68.4C565.665 69.9733 564.358 71.1867 562.705 72.04C561.078 72.8933 559.252 73.32 557.225 73.32C555.198 73.32 553.372 72.8933 551.745 72.04C550.118 71.1867 548.825 69.9733 547.865 68.4C546.905 66.8267 546.425 64.9867 546.425 62.88V44.08H550.265V62.76ZM578.123 44.08L587.643 68L585.443 67.56L594.483 44.08H599.003L586.243 74.32L573.523 44.08H578.123ZM602.753 62.76H610.233V66.04H602.753V62.76ZM614.421 44.24H618.901L626.741 66.32L626.061 66.04L631.781 51.24L633.581 56.48L625.941 74.32L614.421 44.24ZM628.301 44.24H632.181L640.661 66L639.861 65.84L647.341 44.24H651.461L640.101 74.28L628.301 44.24ZM660.303 73.4C658.409 73.4 656.783 73.0267 655.423 72.28C654.063 71.5067 653.009 70.4667 652.263 69.16C651.543 67.8267 651.183 66.3067 651.183 64.6C651.183 62.9733 651.596 61.4933 652.423 60.16C653.249 58.8267 654.356 57.76 655.743 56.96C657.129 56.16 658.676 55.76 660.383 55.76C662.569 55.76 664.383 56.4 665.823 57.68C667.263 58.96 668.236 60.72 668.743 62.96L655.103 67.76L654.223 65.56L665.423 61.48L664.623 62C664.303 61.12 663.769 60.36 663.023 59.72C662.276 59.0533 661.303 58.72 660.103 58.72C659.089 58.72 658.183 58.9733 657.383 59.48C656.583 59.96 655.956 60.6267 655.503 61.48C655.049 62.3333 654.823 63.3067 654.823 64.4C654.823 65.5467 655.063 66.56 655.543 67.44C656.023 68.2933 656.676 68.9733 657.503 69.48C658.356 69.96 659.316 70.2 660.383 70.2C661.103 70.2 661.796 70.0667 662.463 69.8C663.156 69.5333 663.796 69.1867 664.383 68.76L666.103 71.52C665.276 72.08 664.343 72.5333 663.303 72.88C662.289 73.2267 661.289 73.4 660.303 73.4ZM676.724 56.44L677.084 61.24L676.884 60.6C677.311 59.5867 677.924 58.7333 678.724 58.04C679.551 57.32 680.404 56.7733 681.284 56.4C682.191 56 682.977 55.8 683.644 55.8L683.444 59.48C682.191 59.4 681.084 59.64 680.124 60.2C679.191 60.76 678.444 61.5067 677.884 62.44C677.351 63.3733 677.084 64.3733 677.084 65.44V73H673.404V56.44H676.724ZM690.043 49.16H693.763V56.52H698.323V59.44H693.763V73H690.043V59.44H687.003V56.52H690.043V49.16Z" fill="black"/>
</svg>
