<?xml version="1.0" encoding="UTF-8"?>
<svg id="map" xmlns="http://www.w3.org/2000/svg" viewBox="0 0 841.89 595.28">
  <path d="M348.84,245.76l-1.44.16c-.13-.48,0-.99.35-1.35l7.82-9.01c-11.82.24-22.72-.34-34.55-.05-30.48.74-61.43,3.32-91.92,4.08-9.76.24-17.53.05-22.95-9.13-6.89-11.67-1.07-25.49,11.97-28.85,46.29.58,92.19,4.6,138.44,3.93-1.9-3.14-5.2-5.22-7.51-7.98-.67-.8-2.64-2.02-.98-3.02,5.16,2.02,8.62,10.35,13.94,11.06,16.87,2.25,38.66-1.82,56.09-.01,57.28-2.25,114.89-5.19,172.18-5.26,14.79,5.98,22.16,21.25,9.67,34.11-9,9.27-15.18,6.17-25.85,6.07-52.05-.52-104.08-2.87-156-5-17.74,1.84-39.92-2.3-57.09-.01-5.01.67-7.64,7.79-12.17,10.26Z" fill="#4c7fab"/>
</svg>