<?xml version="1.0" encoding="UTF-8"?>
<svg xmlns="http://www.w3.org/2000/svg" viewBox="0 0 841.89 595.28">
  <g id="map">
    <rect x="420.38" y="170" width="11.91" height="270.43" fill="#8c5e31"/>
    <rect x="432.28" y="170" width="15.26" height="270.43" fill="#cca992"/>
    <polygon points="567.73 274.99 310.81 274.99 257.62 228.58 310.81 186.99 567.73 186.99 567.73 274.99" fill="#f2d841"/>
  </g>
  <g id="dots">
    <g>
      <rect x="324.57" y="214.44" width="215.43" height="38.55" fill="none"/>
      <path d="M325.89,243.44l16.46-24.07v-.13h-15.05v-3.21h20.02v2.33l-16.37,23.98v.13h16.59v3.21h-21.65v-2.24Z" fill="#1d1d1b"/>
      <path d="M356.08,216.02v17.56c0,6.65,2.95,9.46,6.91,9.46,4.4,0,7.22-2.9,7.22-9.46v-17.56h3.87v17.29c0,9.11-4.8,12.85-11.22,12.85-6.07,0-10.65-3.48-10.65-12.67v-17.47h3.87Z" fill="#1d1d1b"/>
      <path d="M380.72,216.42c1.94-.4,4.71-.62,7.35-.62,4.09,0,6.73.75,8.58,2.42,1.5,1.32,2.33,3.34,2.33,5.63,0,3.92-2.46,6.51-5.59,7.57v.13c2.29.79,3.65,2.9,4.36,5.98.97,4.14,1.67,7,2.29,8.14h-3.96c-.48-.84-1.14-3.39-1.98-7.08-.88-4.09-2.46-5.63-5.94-5.77h-3.61v12.85h-3.83v-29.26ZM384.55,229.93h3.92c4.09,0,6.69-2.24,6.69-5.63,0-3.83-2.77-5.5-6.82-5.54-1.85,0-3.17.18-3.79.35v10.83Z" fill="#1d1d1b"/>
      <path d="M413.72,216.02h3.83v14.3h.13c.79-1.14,1.58-2.2,2.33-3.17l9.07-11.13h4.75l-10.74,12.59,11.57,17.07h-4.53l-9.77-14.57-2.82,3.26v11.31h-3.83v-29.66Z" fill="#1d1d1b"/>
      <path d="M442.8,236.35l-3.08,9.33h-3.96l10.08-29.66h4.62l10.12,29.66h-4.09l-3.17-9.33h-10.52ZM452.53,233.36l-2.9-8.54c-.66-1.94-1.1-3.7-1.54-5.41h-.09c-.44,1.76-.92,3.56-1.5,5.37l-2.9,8.58h8.93Z" fill="#1d1d1b"/>
      <path d="M464.93,216.42c1.94-.4,4.71-.62,7.35-.62,4.09,0,6.73.75,8.58,2.42,1.5,1.32,2.33,3.34,2.33,5.63,0,3.92-2.46,6.51-5.59,7.57v.13c2.29.79,3.65,2.9,4.36,5.98.97,4.14,1.67,7,2.29,8.14h-3.96c-.48-.84-1.14-3.39-1.98-7.08-.88-4.09-2.46-5.63-5.94-5.77h-3.61v12.85h-3.83v-29.26ZM468.76,229.93h3.92c4.09,0,6.69-2.24,6.69-5.63,0-3.83-2.77-5.5-6.82-5.54-1.85,0-3.17.18-3.79.35v10.83Z" fill="#1d1d1b"/>
      <path d="M494.63,219.28h-9.02v-3.26h21.96v3.26h-9.07v26.4h-3.87v-26.4Z" fill="#1d1d1b"/>
      <path d="M526.23,231.77h-11.53v10.69h12.85v3.21h-16.68v-29.66h16.02v3.21h-12.19v9.37h11.53v3.17Z" fill="#1d1d1b"/>
    </g>
  </g>
</svg>